<svg width="53" height="60" viewBox="0 0 53 60" fill="none" xmlns="http://www.w3.org/2000/svg">
<path d="M45.7404 3.51562C44.4601 3.51562 43.2599 3.86121 42.2248 4.46156V1.75781C42.2248 0.787031 41.4377 0 40.467 0H12.342C11.3711 0 10.584 0.787031 10.584 1.75781V4.48301C9.5407 3.8693 8.32676 3.51562 7.03125 3.51562C3.15422 3.51562 0 6.66984 0 10.5469C0 13.5041 0.876328 16.3615 2.53418 18.8102C5.35652 22.9789 8.83688 24.0607 11.7168 25.2127C13.3773 29.348 16.7353 32.6252 20.9242 34.1769L19.628 42.4219H19.3732C16.4654 42.4219 14.0998 44.7875 14.0998 47.6953V56.4844H12.342C11.3712 56.4844 10.5841 57.2714 10.5841 58.2422C10.5841 59.213 11.3712 60 12.342 60H40.467C41.4377 60 42.2248 59.213 42.2248 58.2422C42.2248 57.2714 41.4377 56.4844 40.467 56.4844H38.7091V47.6953C38.7091 44.7875 36.3435 42.4219 33.4357 42.4219H33.1809L31.8848 34.177C36.0798 32.623 39.4416 29.3386 41.0997 25.1948C43.8202 24.1066 47.3863 23.0217 50.2376 18.8102C51.8954 16.3615 52.7718 13.504 52.7718 10.5469C52.7716 6.66984 49.6174 3.51562 45.7404 3.51562ZM10.571 20.968C6.285 19.2536 3.51563 15.1631 3.51563 10.5469C3.51563 8.60836 5.09274 7.03125 7.03125 7.03125C8.96977 7.03125 10.5469 8.60836 10.5469 10.5469C10.5469 10.6705 10.5599 10.791 10.5841 10.9073V19.3359C10.5841 19.9009 10.6145 20.4588 10.6726 21.0087L10.571 20.968ZM35.1935 56.4844H17.6154V52.9688H35.1935V56.4844ZM33.4357 45.9375C34.405 45.9375 35.1935 46.7261 35.1935 47.6953V49.4531H17.6154V47.6953C17.6154 46.7261 18.4039 45.9375 19.3732 45.9375C20.3269 45.9375 31.1992 45.9375 33.4357 45.9375ZM23.1867 42.4219L24.3499 35.023C25.0226 35.1107 25.7082 35.1562 26.4045 35.1562C27.1007 35.1562 27.7863 35.1105 28.459 35.023L29.6222 42.4219H23.1867ZM38.7091 19.3359C38.7091 26.1207 33.1893 31.6406 26.4045 31.6406C19.6196 31.6406 14.0998 26.1207 14.0998 19.3359V10.5469H38.7091V19.3359ZM38.7091 7.03125H14.0998V3.51562H38.7091V7.03125ZM42.2005 20.968L42.1381 20.993C42.195 20.4483 42.2247 19.8955 42.2247 19.3359V10.5469C42.2248 8.60836 43.8019 7.03125 45.7404 7.03125C47.6789 7.03125 49.256 8.60836 49.256 10.5469C49.256 15.1631 46.4866 19.2537 42.2005 20.968Z" fill="#242424"/>
</svg>
