<svg width="16" height="20" viewBox="0 0 16 20" fill="none" xmlns="http://www.w3.org/2000/svg">
<g clip-path="url(#clip0_31_17602)">
<path d="M7.4964 10.9929C7.77418 11.2712 8.22529 11.2712 8.50351 10.9929L11.2733 8.22361C11.4067 8.08996 11.4816 7.90886 11.4816 7.72005C11.4816 7.53124 11.4067 7.35015 11.2733 7.2165L8.50351 4.44716C8.43745 4.38091 8.35897 4.32835 8.27256 4.29249C8.18615 4.25662 8.09351 4.23816 7.99995 4.23816C7.9064 4.23816 7.81376 4.25662 7.72735 4.29249C7.64094 4.32835 7.56246 4.38091 7.4964 4.44716L4.72662 7.2165C4.66037 7.28256 4.60781 7.36104 4.57194 7.44745C4.53608 7.53386 4.51761 7.6265 4.51761 7.72005C4.51761 7.81361 4.53608 7.90625 4.57194 7.99266C4.60781 8.07907 4.66037 8.15755 4.72662 8.22361L7.4964 10.9929ZM11.7768 15.2729C12.0546 15.5512 12.5057 15.5512 12.784 15.2729L15.5537 12.5036C15.6871 12.37 15.762 12.1889 15.762 12.0001C15.762 11.8112 15.6871 11.6301 15.5537 11.4965L12.784 8.72716C12.7179 8.66091 12.6394 8.60835 12.553 8.57249C12.4666 8.53662 12.374 8.51816 12.2804 8.51816C12.1868 8.51816 12.0942 8.53662 12.0078 8.57249C11.9214 8.60835 11.8429 8.66091 11.7768 8.72716L9.00706 11.4965C8.94081 11.5626 8.88825 11.641 8.85238 11.7274C8.81652 11.8139 8.79806 11.9065 8.79806 12.0001C8.79806 12.0936 8.81652 12.1862 8.85238 12.2727C8.88825 12.3591 8.94081 12.4375 9.00706 12.5036L11.7768 15.2729ZM11.2728 15.7769L8.50351 13.0072C8.43745 12.9409 8.35897 12.8884 8.27256 12.8525C8.18615 12.8166 8.09351 12.7982 7.99995 12.7982C7.9064 12.7982 7.81376 12.8166 7.72735 12.8525C7.64094 12.8884 7.56246 12.9409 7.4964 13.0072L4.72706 15.7769C4.66088 15.843 4.60837 15.9214 4.57255 16.0078C4.53672 16.0942 4.51828 16.1868 4.51828 16.2803C4.51828 16.3738 4.53672 16.4664 4.57255 16.5527C4.60837 16.6391 4.66088 16.7176 4.72706 16.7836L7.4964 19.5534C7.77462 19.8312 8.22529 19.8312 8.50351 19.5534L11.2728 16.7836C11.339 16.7176 11.3915 16.6391 11.4274 16.5527C11.4632 16.4664 11.4816 16.3738 11.4816 16.2803C11.4816 16.1868 11.4632 16.0942 11.4274 16.0078C11.3915 15.9214 11.339 15.843 11.2728 15.7769ZM6.99284 11.4969L4.22351 8.72716C4.15745 8.66091 4.07897 8.60835 3.99256 8.57249C3.90615 8.53662 3.81351 8.51816 3.71995 8.51816C3.6264 8.51816 3.53376 8.53662 3.44735 8.57249C3.36094 8.60835 3.28246 8.66091 3.2164 8.72716L0.447063 11.4969C0.38088 11.563 0.328373 11.6414 0.292547 11.7278C0.256722 11.8142 0.238281 11.9068 0.238281 12.0003C0.238281 12.0938 0.256722 12.1864 0.292547 12.2727C0.328373 12.3591 0.38088 12.4376 0.447063 12.5036L3.2164 15.2734C3.49462 15.5512 3.94529 15.5512 4.22351 15.2734L6.99284 12.5036C7.05902 12.4376 7.11153 12.3591 7.14736 12.2727C7.18318 12.1864 7.20162 12.0938 7.20162 12.0003C7.20162 11.9068 7.18318 11.8142 7.14736 11.7278C7.11153 11.6414 7.05902 11.563 6.99284 11.4969Z" fill="#55ACEE"/>
<path d="M6.99267 11.4969L5.56423 10.068C5.12666 10.6169 4.88846 11.2981 4.88867 12C4.88867 12.7307 5.14245 13.4014 5.56423 13.932L6.99267 12.5036C7.05886 12.4375 7.11136 12.3591 7.14719 12.2727C7.18301 12.1863 7.20145 12.0938 7.20145 12.0003C7.20145 11.9067 7.18301 11.8142 7.14719 11.7278C7.11136 11.6414 7.05886 11.563 6.99267 11.4969ZM9.93223 14.4356L8.50334 13.0067C8.36963 12.8734 8.18856 12.7986 7.99978 12.7986C7.81101 12.7986 7.62993 12.8734 7.49623 13.0067L6.06734 14.4356C6.61632 14.8733 7.29769 15.1114 7.99978 15.1111C8.70187 15.1114 9.38325 14.8733 9.93223 14.4356ZM9.00689 12.5036L10.4358 13.9325C10.8733 13.3834 11.1113 12.7021 11.1109 12C11.1115 11.298 10.8732 10.6167 10.4353 10.068L9.00645 11.4969C8.87317 11.6305 8.79836 11.8116 8.79844 12.0003C8.79853 12.1891 8.8735 12.3701 9.00689 12.5036ZM8.50334 10.9929L9.93223 9.56447C9.38325 9.12681 8.70187 8.88861 7.99978 8.88892C7.29778 8.88836 6.61647 9.12659 6.06778 9.56447L7.49667 10.9929C7.56272 11.0591 7.64118 11.1116 7.72755 11.1474C7.81392 11.1833 7.9065 11.2017 8.00001 11.2017C8.09351 11.2017 8.1861 11.1833 8.27246 11.1474C8.35883 11.1116 8.43729 11.0591 8.50334 10.9929Z" fill="#3B88C3"/>
<path d="M7.99957 14.2223C9.22687 14.2223 10.2218 13.2274 10.2218 12.0001C10.2218 10.7728 9.22687 9.77783 7.99957 9.77783C6.77227 9.77783 5.77734 10.7728 5.77734 12.0001C5.77734 13.2274 6.77227 14.2223 7.99957 14.2223Z" fill="#BBDDF5"/>
</g>
<defs>
<clipPath id="clip0_31_17602">
<rect width="16" height="16" fill="white" transform="translate(0 4)"/>
</clipPath>
</defs>
</svg>
