<svg width="12" height="14" viewBox="0 0 12 14" fill="none" xmlns="http://www.w3.org/2000/svg">
<path d="M10 9.33333C9.47467 9.33333 9 9.54 8.644 9.87133L3.94 7.13333C3.97333 6.98 4 6.82667 4 6.66667C4 6.50667 3.97333 6.35333 3.94 6.2L8.64 3.46C9 3.79333 9.47333 4 10 4C11.1067 4 12 3.10667 12 2C12 0.893333 11.1067 0 10 0C8.89333 0 8 0.893333 8 2C8 2.16 8.02667 2.31333 8.06 2.46667L3.36 5.20667C3 4.87333 2.52667 4.66667 2 4.66667C0.893333 4.66667 0 5.56 0 6.66667C0 7.77333 0.893333 8.66667 2 8.66667C2.52667 8.66667 3 8.46 3.36 8.12667L8.05867 10.872C8.02112 11.023 8.00143 11.1778 8 11.3333C8 11.7289 8.1173 12.1156 8.33706 12.4445C8.55682 12.7734 8.86918 13.0297 9.23463 13.1811C9.60009 13.3325 10.0022 13.3721 10.3902 13.2949C10.7781 13.2177 11.1345 13.0273 11.4142 12.7475C11.6939 12.4678 11.8844 12.1115 11.9616 11.7235C12.0387 11.3356 11.9991 10.9334 11.8478 10.568C11.6964 10.2025 11.44 9.89016 11.1111 9.67039C10.7822 9.45063 10.3956 9.33333 10 9.33333V9.33333Z" fill="white"/>
</svg>
