<svg width="21" height="18" viewBox="0 0 21 18" fill="none" xmlns="http://www.w3.org/2000/svg">
<path d="M14.625 8.2786e-06C13.7519 -0.00149138 12.8905 0.200775 12.1093 0.590718C11.328 0.980661 10.6486 1.54752 10.125 2.24621C9.41584 1.30266 8.42792 0.606001 7.30103 0.254824C6.17415 -0.0963541 4.96536 -0.0842713 3.84572 0.289363C2.72607 0.662997 1.75228 1.37926 1.06212 2.3368C0.371965 3.29434 0.0003989 4.44467 0 5.62501C0 12.3621 9.36008 17.6813 9.75851 17.9044C9.87048 17.9671 9.99667 18 10.125 18C10.2533 18 10.3795 17.9671 10.4915 17.9044C12.213 16.8961 13.8287 15.7173 15.3142 14.3856C18.5893 11.438 20.25 8.49047 20.25 5.62501C20.2483 4.13368 19.6551 2.70393 18.6006 1.6494C17.5461 0.594873 16.1163 0.00169855 14.625 8.2786e-06Z" fill="#FF6363"/>
</svg>
